<?xml version="1.0" encoding="UTF-8"?><svg xmlns="http://www.w3.org/2000/svg" xmlns:xlink="http://www.w3.org/1999/xlink" width="36" zoomAndPan="magnify" viewBox="0 0 36 36.000001" height="36.000001" preserveAspectRatio="xMidYMid meet" version="1.0"><defs><clipPath id="clip-0"><path d="M 32 16 L 35.511719 16 L 35.511719 20 L 32 20 Z M 32 16 " clip-rule="nonzero"/></clipPath></defs><path stroke-linecap="round" transform="matrix(0.000000000000000045, -0.727662, 0.72973, 0.000000000000000045, 18.224464, 33.421021)" fill="none" stroke-linejoin="miter" d="M 3.498904 -0.00247747 L 40.625491 -0.00247747 " stroke="rgb(0%, 29.019165%, 67.83905%)" stroke-width="1" stroke-opacity="1" stroke-miterlimit="4"/><path stroke-linecap="butt" transform="matrix(0.000000000000000045, -0.727662, 0.72973, 0.000000000000000045, 18.224464, 33.421021)" fill-opacity="1" fill="rgb(0%, 29.019165%, 67.83905%)" fill-rule="nonzero" stroke-linejoin="round" d="M 0.49807 -0.00247747 L 2.001171 -1.50132 L 3.498904 -0.00247747 L 2.001171 1.501718 Z M 0.49807 -0.00247747 " stroke="rgb(0%, 29.019165%, 67.83905%)" stroke-width="1" stroke-opacity="1" stroke-miterlimit="4"/><path stroke-linecap="butt" transform="matrix(0.000000000000000045, -0.727662, 0.72973, 0.000000000000000045, 18.224464, 1.312565)" fill-opacity="1" fill="rgb(0%, 29.019165%, 67.83905%)" fill-rule="nonzero" stroke-linejoin="round" d="M -0.499155 -0.00247747 L -2.002256 -1.50132 L -3.499988 -0.00247747 L -2.002256 1.501718 Z M -0.499155 -0.00247747 " stroke="rgb(0%, 29.019165%, 67.83905%)" stroke-width="1" stroke-opacity="1" stroke-miterlimit="4"/><path stroke-linecap="round" transform="matrix(0.737749, 0, 0, 0.72973, 1.513773, 17.925887)" fill="none" stroke-linejoin="miter" d="M 3.502389 -0.000145235 L 42.001055 -0.000145235 " stroke="rgb(0%, 29.019165%, 67.83905%)" stroke-width="1" stroke-opacity="1" stroke-miterlimit="4"/><path stroke-linecap="butt" transform="matrix(0.737749, 0, 0, 0.72973, 1.513773, 17.925887)" fill-opacity="1" fill="rgb(0%, 29.019165%, 67.83905%)" fill-rule="nonzero" stroke-linejoin="round" d="M 0.500224 -0.000145235 L 1.998659 -1.498988 L 3.502389 -0.000145235 L 1.998659 1.498697 Z M 0.500224 -0.000145235 " stroke="rgb(0%, 29.019165%, 67.83905%)" stroke-width="1" stroke-opacity="1" stroke-miterlimit="4"/><path fill="rgb(0%, 29.019165%, 67.83905%)" d="M 34.714844 17.925781 L 33.609375 16.832031 L 32.5 17.925781 L 33.609375 19.019531 Z M 34.714844 17.925781 " fill-opacity="1" fill-rule="nonzero"/><g clip-path="url(#clip-0)"><path stroke-linecap="butt" transform="matrix(0.737749, 0, 0, 0.72973, 35.083984, 17.925887)" fill="none" stroke-linejoin="round" d="M -0.50036 -0.000145235 L -1.998795 -1.498988 L -3.502525 -0.000145235 L -1.998795 1.498697 Z M -0.50036 -0.000145235 " stroke="rgb(0%, 29.019165%, 67.83905%)" stroke-width="1" stroke-opacity="1" stroke-miterlimit="4"/></g><path stroke-linecap="round" transform="matrix(0.628283, -0.362739, 0.364865, 0.631964, 4.30534, 26.042844)" fill="none" stroke-linejoin="miter" d="M 3.499368 -0.0000758308 L 36.750593 -0.00160873 " stroke="rgb(0%, 29.019165%, 67.83905%)" stroke-width="1" stroke-opacity="1" stroke-miterlimit="4"/><path stroke-linecap="butt" transform="matrix(0.628283, -0.362739, 0.364865, 0.631964, 4.30534, 26.042844)" fill-opacity="1" fill="rgb(0%, 29.019165%, 67.83905%)" fill-rule="nonzero" stroke-linejoin="round" d="M 0.500679 0.00324882 L 2.000058 -1.497316 L 3.499368 -0.0000758308 L 1.999989 1.500489 Z M 0.500679 0.00324882 " stroke="rgb(0%, 29.019165%, 67.83905%)" stroke-width="1" stroke-opacity="1" stroke-miterlimit="4"/><path stroke-linecap="butt" transform="matrix(0.628283, -0.362739, 0.364865, 0.631964, 29.592821, 11.443109)" fill-opacity="1" fill="rgb(0%, 29.019165%, 67.83905%)" fill-rule="nonzero" stroke-linejoin="round" d="M -0.501954 -0.000296633 L -1.998571 -1.502173 L -3.49795 -0.00160783 L -2.001333 1.500268 Z M -0.501954 -0.000296633 " stroke="rgb(0%, 29.019165%, 67.83905%)" stroke-width="1" stroke-opacity="1" stroke-miterlimit="4"/><path stroke-linecap="round" transform="matrix(-0.364606, -0.631516, 0.631964, -0.364865, 26.739872, 32.216878)" fill="none" stroke-linejoin="miter" d="M 3.497778 0.000446655 L 40.531525 -0.00142505 " stroke="rgb(100%, 8.628845%, 8.628845%)" stroke-width="1" stroke-opacity="1" stroke-miterlimit="4"/><path stroke-linecap="butt" transform="matrix(-0.364606, -0.631516, 0.631964, -0.364865, 26.739872, 32.216878)" fill-opacity="1" fill="rgb(100%, 8.628845%, 8.628845%)" fill-rule="nonzero" stroke-linejoin="round" d="M 0.497844 0.000377599 L 2.001504 -1.49947 L 3.497778 0.000446655 L 2.001435 1.498335 Z M 0.497844 0.000377599 " stroke="rgb(100%, 8.628845%, 8.628845%)" stroke-width="1" stroke-opacity="1" stroke-miterlimit="4"/><path stroke-linecap="butt" transform="matrix(-0.364606, -0.631516, 0.631964, -0.364865, 10.684965, 4.408962)" fill-opacity="1" fill="rgb(100%, 8.628845%, 8.628845%)" fill-rule="nonzero" stroke-linejoin="round" d="M -0.502133 -0.0013577 L -1.998407 -1.501274 L -3.502067 -0.00142676 L -2.001154 1.501166 Z M -0.502133 -0.0013577 " stroke="rgb(100%, 8.628845%, 8.628845%)" stroke-width="1" stroke-opacity="1" stroke-miterlimit="4"/><path stroke-linecap="round" transform="matrix(-0.637713, -0.368184, 0.364865, -0.631964, 26.188718, 22.2795)" fill="none" stroke-linejoin="miter" d="M 3.498733 -0.00136738 L 22.278806 -0.00208987 " stroke="rgb(100%, 8.628845%, 8.628845%)" stroke-width="1" stroke-opacity="1" stroke-miterlimit="4"/><path stroke-linecap="butt" transform="matrix(-0.637713, -0.368184, 0.364865, -0.631964, 26.188718, 22.2795)" fill-opacity="1" fill="rgb(100%, 8.628845%, 8.628845%)" fill-rule="nonzero" stroke-linejoin="round" d="M 0.499676 0.00281238 L 1.997844 -1.500498 L 3.498733 -0.00136738 L 2.000565 1.501943 Z M 0.499676 0.00281238 " stroke="rgb(100%, 8.628845%, 8.628845%)" stroke-width="1" stroke-opacity="1" stroke-miterlimit="4"/><path stroke-linecap="butt" transform="matrix(-0.637713, -0.368184, 0.364865, -0.631964, 9.749927, 12.78856)" fill-opacity="1" fill="rgb(100%, 8.628845%, 8.628845%)" fill-rule="nonzero" stroke-linejoin="round" d="M -0.501802 0.00104263 L -1.998096 -1.500764 L -3.498916 -0.00208995 L -2.002622 1.499717 Z M -0.501802 0.00104263 " stroke="rgb(100%, 8.628845%, 8.628845%)" stroke-width="1" stroke-opacity="1" stroke-miterlimit="4"/><path stroke-linecap="round" transform="matrix(0.368775, -0.638737, 0.631964, 0.364865, 13.369687, 26.314717)" fill="none" stroke-linejoin="miter" d="M 3.501025 -0.000982101 L 24.208643 -0.000555643 " stroke="rgb(100%, 8.628845%, 8.628845%)" stroke-width="1" stroke-opacity="1" stroke-miterlimit="4"/><path stroke-linecap="butt" transform="matrix(0.368775, -0.638737, 0.631964, 0.364865, 13.369687, 26.314717)" fill-opacity="1" fill="rgb(100%, 8.628845%, 8.628845%)" fill-rule="nonzero" stroke-linejoin="round" d="M 0.49954 0.00123838 L 2.002542 -1.500113 L 3.501025 -0.000982101 L 1.998023 1.500369 Z M 0.49954 0.00123838 " stroke="rgb(100%, 8.628845%, 8.628845%)" stroke-width="1" stroke-opacity="1" stroke-miterlimit="4"/><path stroke-linecap="butt" transform="matrix(0.368775, -0.638737, 0.631964, 0.364865, 23.588703, 8.614861)" fill-opacity="1" fill="rgb(100%, 8.628845%, 8.628845%)" fill-rule="nonzero" stroke-linejoin="round" d="M -0.497942 0.00186043 L -1.999073 -1.501906 L -3.502074 -0.000554924 L -2.000943 1.503211 Z M -0.497942 0.00186043 " stroke="rgb(100%, 8.628845%, 8.628845%)" stroke-width="1" stroke-opacity="1" stroke-miterlimit="4"/></svg>