<?xml version="1.0" standalone="no"?><!DOCTYPE svg PUBLIC "-//W3C//DTD SVG 1.1//EN" "http://www.w3.org/Graphics/SVG/1.1/DTD/svg11.dtd"><svg t="1633750378012" class="icon" viewBox="0 0 1255 1024" version="1.1" xmlns="http://www.w3.org/2000/svg" p-id="6490" width="58.828125" height="48" xmlns:xlink="http://www.w3.org/1999/xlink"><defs><style type="text/css"></style></defs><path d="M155.791637 754.376488l1056.914077 186.369394a41.879297 41.879297 0 1 1-14.546858 82.470251l-1154.616129-203.590787a42.401157 42.401157 0 0 1-10.029505-3.098547A41.862989 41.862989 0 0 1 0.032616 775.495526V42.705679a41.879297 41.879297 0 1 1 83.742286 0v693.340462l539.163331-196.186893a20.929864 20.929864 0 1 1 14.318545 39.335228z" fill="#1296db" p-id="6491"></path><path d="M615.615879 258.625419l602.8303 150.475183L615.615879 597.867293 195.632416 428.409437l419.983463-169.784018z" fill="#666666" p-id="6492"></path><path d="M383.958787 121.604448c58.432056-12.52465 63.960515 15.378574 137.787453 152.43216 3.163779 5.870929 30.20267 138.619168 91.912663 138.619168 57.208946 0 179.911372-132.976552 183.172999-138.619168 40.378948-70.565311 34.328629-136.711116 104.926556-115.608386s115.412688 25.505927 185.651837 199.611602q5.642616 14.024998 131.035884 47.097901l-4.2075 15.93305a4.46843 4.46843 0 0 1 0.88064 8.284534l-270.470459 137.656988a952.949702 952.949702 0 0 0-228.737936 162.820444l-11.415696 10.910144a115.265915 115.265915 0 0 1-162.967217-3.082238 120.491042 120.491042 0 0 1-6.882034-7.827906 907.939242 907.939242 0 0 0-181.672651-171.626838l-148.567132-105.758271a20.92334 20.92334 0 0 1 5.120756-36.77485q44.700605-15.949358 56.328306-27.903223c16.079823-16.536451 59.671475-253.656769 118.103531-266.165111z" fill="#63af08" p-id="6493"></path><path d="M383.958787 121.604448c58.432056-12.52465 98.077138 12.60619 137.787453 152.43216 21.200579 74.77281 65.705486 138.619168 91.912663 138.619168 57.208946 0 85.161094-90.526471 99.479638-138.619168 21.559358-72.717985 96.430017-201.519654 188.815615-201.519654s130.269402 59.573626 234.837179 241.670289c50.131214 87.281151 119.489723 80.333885 117.05981 98.468533q-53.523307 24.95145-351.945913 176.796518l-245.910404 54.273481a188.619917 188.619917 0 0 1-70.973015 1.956977l-25.848397-4.240116a322.11833 322.11833 0 0 1-114.825596-42.303308q-247.492293-149.627161-275.949993-165.706985c15.003486-5.039214 26.565956-18.460812 40.150634-31.963949 86.971297-113.357863 81.524379-247.541218 175.410326-279.863946z" fill="#e0620d" p-id="6494"></path><path d="M615.599571 412.003451q70.989322 114.303735 215.0391 114.303735t420.749945-112.526148L615.599571 729.816433 185.374598 443.054145q82.992111 41.357436 219.246599 41.357436t210.978374-72.40813z" fill="#666666" p-id="6495"></path></svg>