<?xml version="1.0" encoding="UTF-8"?><svg xmlns="http://www.w3.org/2000/svg" xmlns:xlink="http://www.w3.org/1999/xlink" width="36" zoomAndPan="magnify" viewBox="0 0 36 36.000001" height="36.000001" preserveAspectRatio="xMidYMid meet" version="1.0"><path stroke-linecap="round" transform="matrix(0.000000000000000044, 0.726562, -0.72973, 0.000000000000000045, 2.160304, 1.819435)" fill="none" stroke-linejoin="miter" d="M 0.501208 0.0002026 L 42.700185 0.0002026 " stroke="rgb(0%, 0%, 0%)" stroke-width="1" stroke-opacity="1" stroke-miterlimit="4"/><path stroke-linecap="round" transform="matrix(-0.732124, -0.00000000000000009, 0.000000000000000089, -0.72973, 33.805489, 32.974332)" fill="none" stroke-linejoin="miter" d="M 0.502632 0.00229664 L 42.359654 0.00229664 " stroke="rgb(0%, 0%, 0%)" stroke-width="1" stroke-opacity="1" stroke-miterlimit="4"/><path fill="rgb(0%, 50.19989%, 21.569824%)" d="M 9.273438 3.550781 C 9 3.550781 8.726562 3.578125 8.457031 3.632812 C 8.1875 3.683594 7.925781 3.765625 7.675781 3.871094 C 7.421875 3.976562 7.179688 4.105469 6.949219 4.257812 C 6.722656 4.410156 6.511719 4.585938 6.316406 4.78125 C 6.121094 4.976562 5.949219 5.1875 5.796875 5.417969 C 5.644531 5.644531 5.515625 5.886719 5.410156 6.140625 C 5.304688 6.398438 5.226562 6.660156 5.171875 6.929688 C 5.117188 7.199219 5.089844 7.472656 5.089844 7.75 C 5.089844 8.023438 5.117188 8.296875 5.171875 8.566406 C 5.226562 8.839844 5.304688 9.101562 5.410156 9.355469 C 5.515625 9.609375 5.644531 9.851562 5.796875 10.082031 C 5.949219 10.308594 6.121094 10.523438 6.316406 10.71875 C 6.511719 10.914062 6.722656 11.085938 6.949219 11.238281 C 7.179688 11.390625 7.421875 11.523438 7.675781 11.628906 C 7.925781 11.734375 8.1875 11.8125 8.457031 11.867188 C 8.726562 11.921875 9 11.945312 9.273438 11.945312 C 9.550781 11.945312 9.820312 11.921875 10.089844 11.867188 C 10.359375 11.8125 10.621094 11.734375 10.875 11.628906 C 11.128906 11.523438 11.371094 11.390625 11.597656 11.238281 C 11.828125 11.085938 12.039062 10.914062 12.234375 10.71875 C 12.425781 10.523438 12.601562 10.308594 12.753906 10.082031 C 12.90625 9.851562 13.035156 9.609375 13.140625 9.355469 C 13.246094 9.101562 13.324219 8.839844 13.378906 8.566406 C 13.433594 8.296875 13.457031 8.023438 13.457031 7.75 C 13.457031 7.472656 13.433594 7.199219 13.378906 6.929688 C 13.324219 6.660156 13.246094 6.398438 13.140625 6.140625 C 13.035156 5.886719 12.90625 5.644531 12.753906 5.417969 C 12.601562 5.1875 12.425781 4.976562 12.234375 4.78125 C 12.039062 4.585938 11.828125 4.410156 11.597656 4.257812 C 11.371094 4.105469 11.128906 3.976562 10.875 3.871094 C 10.621094 3.765625 10.359375 3.683594 10.089844 3.632812 C 9.820312 3.578125 9.550781 3.550781 9.273438 3.550781 Z M 9.273438 3.550781 " fill-opacity="1" fill-rule="nonzero"/><path fill="rgb(100%, 100%, 100%)" d="M 9.273438 11.996094 C 6.941406 11.996094 5.042969 10.089844 5.042969 7.75 C 5.042969 5.40625 6.941406 3.503906 9.273438 3.503906 C 11.609375 3.503906 13.507812 5.40625 13.507812 7.75 C 13.507812 10.089844 11.609375 11.996094 9.273438 11.996094 Z M 9.273438 3.597656 C 6.996094 3.597656 5.140625 5.460938 5.140625 7.75 C 5.140625 10.039062 6.996094 11.898438 9.273438 11.898438 C 11.554688 11.898438 13.410156 10.039062 13.410156 7.75 C 13.410156 5.460938 11.554688 3.597656 9.273438 3.597656 Z M 9.273438 3.597656 " fill-opacity="1" fill-rule="nonzero"/><path fill="rgb(100%, 56.858826%, 30.198669%)" d="M 18.53125 3.550781 C 18.253906 3.550781 17.984375 3.578125 17.714844 3.632812 C 17.445312 3.683594 17.183594 3.765625 16.929688 3.871094 C 16.675781 3.976562 16.433594 4.105469 16.207031 4.257812 C 15.976562 4.410156 15.765625 4.585938 15.570312 4.78125 C 15.378906 4.976562 15.203125 5.1875 15.050781 5.417969 C 14.898438 5.644531 14.769531 5.886719 14.664062 6.140625 C 14.558594 6.398438 14.480469 6.660156 14.425781 6.929688 C 14.371094 7.199219 14.347656 7.472656 14.347656 7.75 C 14.347656 8.023438 14.371094 8.296875 14.425781 8.566406 C 14.480469 8.839844 14.558594 9.101562 14.664062 9.355469 C 14.769531 9.609375 14.898438 9.851562 15.050781 10.082031 C 15.203125 10.308594 15.378906 10.523438 15.570312 10.71875 C 15.765625 10.914062 15.976562 11.085938 16.207031 11.238281 C 16.433594 11.390625 16.675781 11.523438 16.929688 11.628906 C 17.183594 11.734375 17.445312 11.8125 17.714844 11.867188 C 17.984375 11.921875 18.253906 11.945312 18.53125 11.945312 C 18.804688 11.945312 19.078125 11.921875 19.347656 11.867188 C 19.617188 11.8125 19.878906 11.734375 20.128906 11.628906 C 20.382812 11.523438 20.625 11.390625 20.855469 11.238281 C 21.082031 11.085938 21.292969 10.914062 21.488281 10.71875 C 21.683594 10.523438 21.855469 10.308594 22.007812 10.082031 C 22.160156 9.851562 22.289062 9.609375 22.394531 9.355469 C 22.5 9.101562 22.578125 8.839844 22.632812 8.566406 C 22.6875 8.296875 22.714844 8.023438 22.714844 7.75 C 22.714844 7.472656 22.6875 7.199219 22.632812 6.929688 C 22.578125 6.660156 22.5 6.398438 22.394531 6.140625 C 22.289062 5.886719 22.160156 5.644531 22.007812 5.417969 C 21.855469 5.1875 21.683594 4.976562 21.488281 4.78125 C 21.292969 4.585938 21.082031 4.410156 20.855469 4.257812 C 20.625 4.105469 20.382812 3.976562 20.128906 3.871094 C 19.878906 3.765625 19.617188 3.683594 19.347656 3.632812 C 19.078125 3.578125 18.804688 3.550781 18.53125 3.550781 Z M 18.53125 3.550781 " fill-opacity="1" fill-rule="nonzero"/><path fill="rgb(100%, 100%, 100%)" d="M 18.53125 11.996094 C 16.195312 11.996094 14.296875 10.089844 14.296875 7.75 C 14.296875 5.40625 16.195312 3.503906 18.53125 3.503906 C 20.863281 3.503906 22.761719 5.40625 22.761719 7.75 C 22.761719 10.089844 20.863281 11.996094 18.53125 11.996094 Z M 18.53125 3.597656 C 16.25 3.597656 14.394531 5.460938 14.394531 7.75 C 14.394531 10.039062 16.25 11.898438 18.53125 11.898438 C 20.808594 11.898438 22.664062 10.039062 22.664062 7.75 C 22.664062 5.460938 20.808594 3.597656 18.53125 3.597656 Z M 18.53125 3.597656 " fill-opacity="1" fill-rule="nonzero"/><path fill="rgb(90.19928%, 89.408875%, 82.348633%)" d="M 27.785156 3.550781 C 27.507812 3.550781 27.238281 3.578125 26.96875 3.632812 C 26.699219 3.683594 26.4375 3.765625 26.183594 3.871094 C 25.929688 3.976562 25.6875 4.105469 25.460938 4.257812 C 25.230469 4.410156 25.019531 4.585938 24.824219 4.78125 C 24.632812 4.976562 24.457031 5.1875 24.304688 5.417969 C 24.152344 5.644531 24.023438 5.886719 23.917969 6.140625 C 23.8125 6.398438 23.734375 6.660156 23.679688 6.929688 C 23.628906 7.199219 23.601562 7.472656 23.601562 7.75 C 23.601562 8.023438 23.628906 8.296875 23.679688 8.566406 C 23.734375 8.839844 23.8125 9.101562 23.917969 9.355469 C 24.023438 9.609375 24.152344 9.851562 24.304688 10.082031 C 24.457031 10.308594 24.632812 10.523438 24.824219 10.71875 C 25.019531 10.914062 25.230469 11.085938 25.460938 11.238281 C 25.6875 11.390625 25.929688 11.523438 26.183594 11.628906 C 26.4375 11.734375 26.699219 11.8125 26.96875 11.867188 C 27.238281 11.921875 27.507812 11.945312 27.785156 11.945312 C 28.058594 11.945312 28.332031 11.921875 28.601562 11.867188 C 28.871094 11.8125 29.132812 11.734375 29.386719 11.628906 C 29.640625 11.523438 29.878906 11.390625 30.109375 11.238281 C 30.335938 11.085938 30.546875 10.914062 30.742188 10.71875 C 30.9375 10.523438 31.109375 10.308594 31.261719 10.082031 C 31.414062 9.851562 31.542969 9.609375 31.648438 9.355469 C 31.753906 9.101562 31.835938 8.839844 31.886719 8.566406 C 31.941406 8.296875 31.96875 8.023438 31.96875 7.75 C 31.96875 7.472656 31.941406 7.199219 31.886719 6.929688 C 31.835938 6.660156 31.753906 6.398438 31.648438 6.140625 C 31.542969 5.886719 31.414062 5.644531 31.261719 5.417969 C 31.109375 5.1875 30.9375 4.976562 30.742188 4.78125 C 30.546875 4.585938 30.335938 4.410156 30.109375 4.257812 C 29.878906 4.105469 29.640625 3.976562 29.386719 3.871094 C 29.132812 3.765625 28.871094 3.683594 28.601562 3.632812 C 28.332031 3.578125 28.058594 3.550781 27.785156 3.550781 Z M 27.785156 3.550781 " fill-opacity="1" fill-rule="nonzero"/><path fill="rgb(100%, 100%, 100%)" d="M 27.785156 11.996094 C 25.449219 11.996094 23.550781 10.089844 23.550781 7.75 C 23.550781 5.40625 25.449219 3.503906 27.785156 3.503906 C 30.117188 3.503906 32.015625 5.40625 32.015625 7.75 C 32.015625 10.089844 30.117188 11.996094 27.785156 11.996094 Z M 27.785156 3.597656 C 25.503906 3.597656 23.648438 5.460938 23.648438 7.75 C 23.648438 10.039062 25.503906 11.898438 27.785156 11.898438 C 30.066406 11.898438 31.921875 10.039062 31.921875 7.75 C 31.921875 5.460938 30.066406 3.597656 27.785156 3.597656 Z M 27.785156 3.597656 " fill-opacity="1" fill-rule="nonzero"/><path fill="rgb(21.958923%, 71.369934%, 100%)" d="M 9.273438 13.316406 C 9 13.316406 8.726562 13.34375 8.457031 13.398438 C 8.1875 13.453125 7.925781 13.53125 7.675781 13.636719 C 7.421875 13.742188 7.179688 13.871094 6.949219 14.027344 C 6.722656 14.179688 6.511719 14.351562 6.316406 14.546875 C 6.121094 14.742188 5.949219 14.953125 5.796875 15.183594 C 5.644531 15.414062 5.515625 15.65625 5.410156 15.910156 C 5.304688 16.164062 5.226562 16.425781 5.171875 16.699219 C 5.117188 16.96875 5.089844 17.242188 5.089844 17.515625 C 5.089844 17.792969 5.117188 18.066406 5.171875 18.335938 C 5.226562 18.605469 5.304688 18.867188 5.410156 19.121094 C 5.515625 19.378906 5.644531 19.621094 5.796875 19.847656 C 5.949219 20.078125 6.121094 20.289062 6.316406 20.484375 C 6.511719 20.679688 6.722656 20.855469 6.949219 21.007812 C 7.179688 21.160156 7.421875 21.289062 7.675781 21.394531 C 7.925781 21.5 8.1875 21.578125 8.457031 21.632812 C 8.726562 21.6875 9 21.714844 9.273438 21.714844 C 9.550781 21.714844 9.820312 21.6875 10.089844 21.632812 C 10.359375 21.578125 10.621094 21.5 10.875 21.394531 C 11.128906 21.289062 11.371094 21.160156 11.597656 21.007812 C 11.828125 20.855469 12.039062 20.679688 12.234375 20.484375 C 12.425781 20.289062 12.601562 20.078125 12.753906 19.847656 C 12.90625 19.621094 13.035156 19.378906 13.140625 19.121094 C 13.246094 18.867188 13.324219 18.605469 13.378906 18.335938 C 13.433594 18.066406 13.457031 17.792969 13.457031 17.515625 C 13.457031 17.242188 13.433594 16.96875 13.378906 16.699219 C 13.324219 16.425781 13.246094 16.164062 13.140625 15.910156 C 13.035156 15.65625 12.90625 15.414062 12.753906 15.183594 C 12.601562 14.953125 12.425781 14.742188 12.234375 14.546875 C 12.039062 14.351562 11.828125 14.179688 11.597656 14.027344 C 11.371094 13.871094 11.128906 13.742188 10.875 13.636719 C 10.621094 13.53125 10.359375 13.453125 10.089844 13.398438 C 9.820312 13.34375 9.550781 13.316406 9.273438 13.316406 Z M 9.273438 13.316406 " fill-opacity="1" fill-rule="nonzero"/><path fill="rgb(100%, 100%, 100%)" d="M 9.273438 21.761719 C 6.941406 21.761719 5.042969 19.859375 5.042969 17.515625 C 5.042969 15.171875 6.941406 13.269531 9.273438 13.269531 C 11.609375 13.269531 13.507812 15.171875 13.507812 17.515625 C 13.507812 19.859375 11.609375 21.761719 9.273438 21.761719 Z M 9.273438 13.367188 C 6.996094 13.367188 5.140625 15.226562 5.140625 17.515625 C 5.140625 19.804688 6.996094 21.667969 9.273438 21.667969 C 11.554688 21.667969 13.410156 19.804688 13.410156 17.515625 C 13.410156 15.226562 11.554688 13.367188 9.273438 13.367188 Z M 9.273438 13.367188 " fill-opacity="1" fill-rule="nonzero"/><path fill="rgb(90.19928%, 89.408875%, 82.348633%)" d="M 9.273438 23.085938 C 9 23.085938 8.726562 23.113281 8.457031 23.167969 C 8.1875 23.21875 7.925781 23.300781 7.675781 23.40625 C 7.421875 23.511719 7.179688 23.640625 6.949219 23.792969 C 6.722656 23.945312 6.511719 24.121094 6.316406 24.316406 C 6.121094 24.511719 5.949219 24.722656 5.796875 24.953125 C 5.644531 25.179688 5.515625 25.421875 5.410156 25.675781 C 5.304688 25.933594 5.226562 26.195312 5.171875 26.464844 C 5.117188 26.734375 5.089844 27.007812 5.089844 27.285156 C 5.089844 27.558594 5.117188 27.832031 5.171875 28.101562 C 5.226562 28.375 5.304688 28.636719 5.410156 28.890625 C 5.515625 29.144531 5.644531 29.386719 5.796875 29.617188 C 5.949219 29.84375 6.121094 30.058594 6.316406 30.253906 C 6.511719 30.445312 6.722656 30.621094 6.949219 30.773438 C 7.179688 30.925781 7.421875 31.058594 7.675781 31.164062 C 7.925781 31.269531 8.1875 31.347656 8.457031 31.402344 C 8.726562 31.453125 9 31.480469 9.273438 31.480469 C 9.550781 31.480469 9.820312 31.453125 10.089844 31.402344 C 10.359375 31.347656 10.621094 31.269531 10.875 31.164062 C 11.128906 31.058594 11.371094 30.925781 11.597656 30.773438 C 11.828125 30.621094 12.039062 30.445312 12.234375 30.253906 C 12.425781 30.058594 12.601562 29.84375 12.753906 29.617188 C 12.90625 29.386719 13.035156 29.144531 13.140625 28.890625 C 13.246094 28.636719 13.324219 28.375 13.378906 28.101562 C 13.433594 27.832031 13.457031 27.558594 13.457031 27.285156 C 13.457031 27.007812 13.433594 26.734375 13.378906 26.464844 C 13.324219 26.195312 13.246094 25.933594 13.140625 25.675781 C 13.035156 25.421875 12.90625 25.179688 12.753906 24.953125 C 12.601562 24.722656 12.425781 24.511719 12.234375 24.316406 C 12.039062 24.121094 11.828125 23.945312 11.597656 23.792969 C 11.371094 23.640625 11.128906 23.511719 10.875 23.40625 C 10.621094 23.300781 10.359375 23.21875 10.089844 23.167969 C 9.820312 23.113281 9.550781 23.085938 9.273438 23.085938 Z M 9.273438 23.085938 " fill-opacity="1" fill-rule="nonzero"/><path fill="rgb(100%, 100%, 100%)" d="M 9.273438 31.53125 C 6.941406 31.53125 5.042969 29.625 5.042969 27.285156 C 5.042969 24.941406 6.941406 23.039062 9.273438 23.039062 C 11.609375 23.039062 13.507812 24.941406 13.507812 27.285156 C 13.507812 29.625 11.609375 31.53125 9.273438 31.53125 Z M 9.273438 23.132812 C 6.996094 23.132812 5.140625 24.996094 5.140625 27.285156 C 5.140625 29.574219 6.996094 31.433594 9.273438 31.433594 C 11.554688 31.433594 13.410156 29.574219 13.410156 27.285156 C 13.410156 24.996094 11.554688 23.132812 9.273438 23.132812 Z M 9.273438 23.132812 " fill-opacity="1" fill-rule="nonzero"/><path fill="rgb(90.19928%, 89.408875%, 82.348633%)" d="M 18.53125 13.316406 C 18.253906 13.316406 17.984375 13.34375 17.714844 13.398438 C 17.445312 13.453125 17.183594 13.53125 16.929688 13.636719 C 16.675781 13.742188 16.433594 13.871094 16.207031 14.027344 C 15.976562 14.179688 15.765625 14.351562 15.570312 14.546875 C 15.378906 14.742188 15.203125 14.953125 15.050781 15.183594 C 14.898438 15.414062 14.769531 15.65625 14.664062 15.910156 C 14.558594 16.164062 14.480469 16.425781 14.425781 16.699219 C 14.371094 16.96875 14.347656 17.242188 14.347656 17.515625 C 14.347656 17.792969 14.371094 18.066406 14.425781 18.335938 C 14.480469 18.605469 14.558594 18.867188 14.664062 19.121094 C 14.769531 19.378906 14.898438 19.621094 15.050781 19.847656 C 15.203125 20.078125 15.378906 20.289062 15.570312 20.484375 C 15.765625 20.679688 15.976562 20.855469 16.207031 21.007812 C 16.433594 21.160156 16.675781 21.289062 16.929688 21.394531 C 17.183594 21.5 17.445312 21.578125 17.714844 21.632812 C 17.984375 21.6875 18.253906 21.714844 18.53125 21.714844 C 18.804688 21.714844 19.078125 21.6875 19.347656 21.632812 C 19.617188 21.578125 19.878906 21.5 20.128906 21.394531 C 20.382812 21.289062 20.625 21.160156 20.855469 21.007812 C 21.082031 20.855469 21.292969 20.679688 21.488281 20.484375 C 21.683594 20.289062 21.855469 20.078125 22.007812 19.847656 C 22.160156 19.621094 22.289062 19.378906 22.394531 19.121094 C 22.5 18.867188 22.578125 18.605469 22.632812 18.335938 C 22.6875 18.066406 22.714844 17.792969 22.714844 17.515625 C 22.714844 17.242188 22.6875 16.96875 22.632812 16.699219 C 22.578125 16.425781 22.5 16.164062 22.394531 15.910156 C 22.289062 15.65625 22.160156 15.414062 22.007812 15.183594 C 21.855469 14.953125 21.683594 14.742188 21.488281 14.546875 C 21.292969 14.351562 21.082031 14.179688 20.855469 14.027344 C 20.625 13.871094 20.382812 13.742188 20.128906 13.636719 C 19.878906 13.53125 19.617188 13.453125 19.347656 13.398438 C 19.078125 13.34375 18.804688 13.316406 18.53125 13.316406 Z M 18.53125 13.316406 " fill-opacity="1" fill-rule="nonzero"/><path fill="rgb(100%, 100%, 100%)" d="M 18.53125 21.761719 C 16.195312 21.761719 14.296875 19.859375 14.296875 17.515625 C 14.296875 15.171875 16.195312 13.269531 18.53125 13.269531 C 20.863281 13.269531 22.761719 15.171875 22.761719 17.515625 C 22.761719 19.859375 20.863281 21.761719 18.53125 21.761719 Z M 18.53125 13.367188 C 16.25 13.367188 14.394531 15.226562 14.394531 17.515625 C 14.394531 19.804688 16.25 21.667969 18.53125 21.667969 C 20.808594 21.667969 22.664062 19.804688 22.664062 17.515625 C 22.664062 15.226562 20.808594 13.367188 18.53125 13.367188 Z M 18.53125 13.367188 " fill-opacity="1" fill-rule="nonzero"/><path fill="rgb(21.958923%, 71.369934%, 100%)" d="M 18.53125 23.085938 C 18.253906 23.085938 17.984375 23.113281 17.714844 23.167969 C 17.445312 23.21875 17.183594 23.300781 16.929688 23.40625 C 16.675781 23.511719 16.433594 23.640625 16.207031 23.792969 C 15.976562 23.945312 15.765625 24.121094 15.570312 24.316406 C 15.378906 24.511719 15.203125 24.722656 15.050781 24.953125 C 14.898438 25.179688 14.769531 25.421875 14.664062 25.675781 C 14.558594 25.933594 14.480469 26.195312 14.425781 26.464844 C 14.371094 26.734375 14.347656 27.007812 14.347656 27.285156 C 14.347656 27.558594 14.371094 27.832031 14.425781 28.101562 C 14.480469 28.375 14.558594 28.636719 14.664062 28.890625 C 14.769531 29.144531 14.898438 29.386719 15.050781 29.617188 C 15.203125 29.84375 15.378906 30.058594 15.570312 30.253906 C 15.765625 30.445312 15.976562 30.621094 16.207031 30.773438 C 16.433594 30.925781 16.675781 31.058594 16.929688 31.164062 C 17.183594 31.269531 17.445312 31.347656 17.714844 31.402344 C 17.984375 31.453125 18.253906 31.480469 18.53125 31.480469 C 18.804688 31.480469 19.078125 31.453125 19.347656 31.402344 C 19.617188 31.347656 19.878906 31.269531 20.128906 31.164062 C 20.382812 31.058594 20.625 30.925781 20.855469 30.773438 C 21.082031 30.621094 21.292969 30.445312 21.488281 30.253906 C 21.683594 30.058594 21.855469 29.84375 22.007812 29.617188 C 22.160156 29.386719 22.289062 29.144531 22.394531 28.890625 C 22.5 28.636719 22.578125 28.375 22.632812 28.101562 C 22.6875 27.832031 22.714844 27.558594 22.714844 27.285156 C 22.714844 27.007812 22.6875 26.734375 22.632812 26.464844 C 22.578125 26.195312 22.5 25.933594 22.394531 25.675781 C 22.289062 25.421875 22.160156 25.179688 22.007812 24.953125 C 21.855469 24.722656 21.683594 24.511719 21.488281 24.316406 C 21.292969 24.121094 21.082031 23.945312 20.855469 23.792969 C 20.625 23.640625 20.382812 23.511719 20.128906 23.40625 C 19.878906 23.300781 19.617188 23.21875 19.347656 23.167969 C 19.078125 23.113281 18.804688 23.085938 18.53125 23.085938 Z M 18.53125 23.085938 " fill-opacity="1" fill-rule="nonzero"/><path fill="rgb(100%, 100%, 100%)" d="M 18.53125 31.53125 C 16.195312 31.53125 14.296875 29.625 14.296875 27.285156 C 14.296875 24.941406 16.195312 23.039062 18.53125 23.039062 C 20.863281 23.039062 22.761719 24.941406 22.761719 27.285156 C 22.761719 29.625 20.863281 31.53125 18.53125 31.53125 Z M 18.53125 23.132812 C 16.25 23.132812 14.394531 24.996094 14.394531 27.285156 C 14.394531 29.574219 16.25 31.433594 18.53125 31.433594 C 20.808594 31.433594 22.664062 29.574219 22.664062 27.285156 C 22.664062 24.996094 20.808594 23.132812 18.53125 23.132812 Z M 18.53125 23.132812 " fill-opacity="1" fill-rule="nonzero"/><path fill="rgb(100%, 56.858826%, 30.198669%)" d="M 27.785156 13.316406 C 27.507812 13.316406 27.238281 13.34375 26.96875 13.398438 C 26.699219 13.453125 26.4375 13.53125 26.183594 13.636719 C 25.929688 13.742188 25.6875 13.871094 25.460938 14.027344 C 25.230469 14.179688 25.019531 14.351562 24.824219 14.546875 C 24.632812 14.742188 24.457031 14.953125 24.304688 15.183594 C 24.152344 15.414062 24.023438 15.65625 23.917969 15.910156 C 23.8125 16.164062 23.734375 16.425781 23.679688 16.699219 C 23.628906 16.96875 23.601562 17.242188 23.601562 17.515625 C 23.601562 17.792969 23.628906 18.066406 23.679688 18.335938 C 23.734375 18.605469 23.8125 18.867188 23.917969 19.121094 C 24.023438 19.378906 24.152344 19.621094 24.304688 19.847656 C 24.457031 20.078125 24.632812 20.289062 24.824219 20.484375 C 25.019531 20.679688 25.230469 20.855469 25.460938 21.007812 C 25.6875 21.160156 25.929688 21.289062 26.183594 21.394531 C 26.4375 21.5 26.699219 21.578125 26.96875 21.632812 C 27.238281 21.6875 27.507812 21.714844 27.785156 21.714844 C 28.058594 21.714844 28.332031 21.6875 28.601562 21.632812 C 28.871094 21.578125 29.132812 21.5 29.386719 21.394531 C 29.640625 21.289062 29.878906 21.160156 30.109375 21.007812 C 30.335938 20.855469 30.546875 20.679688 30.742188 20.484375 C 30.9375 20.289062 31.109375 20.078125 31.261719 19.847656 C 31.414062 19.621094 31.542969 19.378906 31.648438 19.121094 C 31.753906 18.867188 31.835938 18.605469 31.886719 18.335938 C 31.941406 18.066406 31.96875 17.792969 31.96875 17.515625 C 31.96875 17.242188 31.941406 16.96875 31.886719 16.699219 C 31.835938 16.425781 31.753906 16.164062 31.648438 15.910156 C 31.542969 15.65625 31.414062 15.414062 31.261719 15.183594 C 31.109375 14.953125 30.9375 14.742188 30.742188 14.546875 C 30.546875 14.351562 30.335938 14.179688 30.109375 14.027344 C 29.878906 13.871094 29.640625 13.742188 29.386719 13.636719 C 29.132812 13.53125 28.871094 13.453125 28.601562 13.398438 C 28.332031 13.34375 28.058594 13.316406 27.785156 13.316406 Z M 27.785156 13.316406 " fill-opacity="1" fill-rule="nonzero"/><path fill="rgb(100%, 100%, 100%)" d="M 27.785156 21.761719 C 25.449219 21.761719 23.550781 19.859375 23.550781 17.515625 C 23.550781 15.171875 25.449219 13.269531 27.785156 13.269531 C 30.117188 13.269531 32.015625 15.171875 32.015625 17.515625 C 32.015625 19.859375 30.117188 21.761719 27.785156 21.761719 Z M 27.785156 13.367188 C 25.503906 13.367188 23.648438 15.226562 23.648438 17.515625 C 23.648438 19.804688 25.503906 21.667969 27.785156 21.667969 C 30.066406 21.667969 31.921875 19.804688 31.921875 17.515625 C 31.921875 15.226562 30.066406 13.367188 27.785156 13.367188 Z M 27.785156 13.367188 " fill-opacity="1" fill-rule="nonzero"/><path fill="rgb(0%, 50.19989%, 21.569824%)" d="M 27.785156 23.085938 C 27.507812 23.085938 27.238281 23.113281 26.96875 23.167969 C 26.699219 23.21875 26.4375 23.300781 26.183594 23.40625 C 25.929688 23.511719 25.6875 23.640625 25.460938 23.792969 C 25.230469 23.945312 25.019531 24.121094 24.824219 24.316406 C 24.632812 24.511719 24.457031 24.722656 24.304688 24.953125 C 24.152344 25.179688 24.023438 25.421875 23.917969 25.675781 C 23.8125 25.933594 23.734375 26.195312 23.679688 26.464844 C 23.628906 26.734375 23.601562 27.007812 23.601562 27.285156 C 23.601562 27.558594 23.628906 27.832031 23.679688 28.101562 C 23.734375 28.375 23.8125 28.636719 23.917969 28.890625 C 24.023438 29.144531 24.152344 29.386719 24.304688 29.617188 C 24.457031 29.84375 24.632812 30.058594 24.824219 30.253906 C 25.019531 30.445312 25.230469 30.621094 25.460938 30.773438 C 25.6875 30.925781 25.929688 31.058594 26.183594 31.164062 C 26.4375 31.269531 26.699219 31.347656 26.96875 31.402344 C 27.238281 31.453125 27.507812 31.480469 27.785156 31.480469 C 28.058594 31.480469 28.332031 31.453125 28.601562 31.402344 C 28.871094 31.347656 29.132812 31.269531 29.386719 31.164062 C 29.640625 31.058594 29.878906 30.925781 30.109375 30.773438 C 30.335938 30.621094 30.546875 30.445312 30.742188 30.253906 C 30.9375 30.058594 31.109375 29.84375 31.261719 29.617188 C 31.414062 29.386719 31.542969 29.144531 31.648438 28.890625 C 31.753906 28.636719 31.835938 28.375 31.886719 28.101562 C 31.941406 27.832031 31.96875 27.558594 31.96875 27.285156 C 31.96875 27.007812 31.941406 26.734375 31.886719 26.464844 C 31.835938 26.195312 31.753906 25.933594 31.648438 25.675781 C 31.542969 25.421875 31.414062 25.179688 31.261719 24.953125 C 31.109375 24.722656 30.9375 24.511719 30.742188 24.316406 C 30.546875 24.121094 30.335938 23.945312 30.109375 23.792969 C 29.878906 23.640625 29.640625 23.511719 29.386719 23.40625 C 29.132812 23.300781 28.871094 23.21875 28.601562 23.167969 C 28.332031 23.113281 28.058594 23.085938 27.785156 23.085938 Z M 27.785156 23.085938 " fill-opacity="1" fill-rule="nonzero"/><path fill="rgb(100%, 100%, 100%)" d="M 27.785156 31.53125 C 25.449219 31.53125 23.550781 29.625 23.550781 27.285156 C 23.550781 24.941406 25.449219 23.039062 27.785156 23.039062 C 30.117188 23.039062 32.015625 24.941406 32.015625 27.285156 C 32.015625 29.625 30.117188 31.53125 27.785156 31.53125 Z M 27.785156 23.132812 C 25.503906 23.132812 23.648438 24.996094 23.648438 27.285156 C 23.648438 29.574219 25.503906 31.433594 27.785156 31.433594 C 30.066406 31.433594 31.921875 29.574219 31.921875 27.285156 C 31.921875 24.996094 30.066406 23.132812 27.785156 23.132812 Z M 27.785156 23.132812 " fill-opacity="1" fill-rule="nonzero"/></svg>